<svg viewBox="0 0 96 96" xmlns="http://www.w3.org/2000/svg" xmlns:xlink="http://www.w3.org/1999/xlink" id="Icons_YinAndYang" overflow="hidden"><style>
.MsftOfcThm_Text1_Fill_v2 {
 fill:#FFFFFF; 
}
</style>
<path d="M53.1 59.1C52.5 58.5 51.7 58 50.9 57.6 49.2 56.9 47.2 56.9 45.4 57.6 43.7 58.3 42.4 59.7 41.7 61.3 41 63 41 65 41.7 66.8 42.1 67.6 42.6 68.4 43.2 69 43.8 69.6 44.6 70.1 45.4 70.5 46.3 70.9 47.2 71 48.1 71 49 71 50 70.8 50.8 70.4 51.6 70 52.4 69.5 53 68.9 53.6 68.3 54.1 67.5 54.5 66.7 54.9 65.8 55.1 64.9 55.1 64 55.1 63.1 54.9 62.1 54.5 61.3 54.2 60.5 53.7 59.7 53.1 59.1Z" class="MsftOfcThm_Text1_Fill_v2" fill="#FFFFFF"/><path d="M48 10C27 10 10 27 10 48 10 69 27 86 48 86 69 86 86 69 86 48 86 27 69 10 48 10ZM80 48C80 59.1 74.3 69.4 64.8 75.2 64.6 75.3 64.5 75.4 64.3 75.5 63.6 75.9 63 76.3 62.3 76.6 62.1 76.7 61.8 76.8 61.6 77 57.4 79 52.8 80 48.1 80 46 80 43.9 79.6 41.9 78.7 38.1 77.1 35 74 33.4 70.2 32.6 68.2 32.1 66.1 32.1 64 32.1 61.8 32.5 59.7 33.4 57.7 35 53.9 38.1 50.8 41.9 49.2 43.9 48.4 46 47.9 48.2 47.9 50.3 47.9 52.4 47.5 54.4 46.6 58.2 45 61.3 41.9 62.9 38.1 63.7 36.1 64.2 34 64.2 31.9 64.2 27.8 62.7 23.9 59.9 21 58.5 19.6 56.9 18.4 55.1 17.5 53.3 16.6 51.4 16.1 49.4 16 66.5 16.8 80 30.9 80 48ZM45.4 25.5C47.1 24.8 49.1 24.8 50.9 25.5 52.6 26.2 53.9 27.6 54.6 29.2 55 30.1 55.2 31 55.2 31.9 55.2 32.8 55 33.7 54.6 34.6 54.2 35.4 53.7 36.2 53.1 36.8 52.5 37.4 51.7 37.9 50.9 38.3 50 38.7 49.1 38.9 48.2 38.9 47.3 38.9 46.3 38.7 45.5 38.4 44.7 38.1 43.9 37.6 43.3 36.9 42.7 36.3 42.2 35.5 41.8 34.7 41.1 33 41.1 31 41.8 29.2 42.4 27.6 43.7 26.2 45.4 25.5Z" class="MsftOfcThm_Text1_Fill_v2" fill="#FFFFFF"/></svg>