<svg viewBox="0 0 96 96" xmlns="http://www.w3.org/2000/svg" xmlns:xlink="http://www.w3.org/1999/xlink" id="Icons_SecurityCameraSign" overflow="hidden"><style>
.MsftOfcThm_Text1_Fill_v2 {
 fill:#FFFFFF; 
}
</style>
<circle cx="45.24" cy="52.56" r="2.03" class="MsftOfcThm_Text1_Fill_v2" fill="#FFFFFF"/><path d="M90.55 80 51.47 12C50.3711 10.0836 47.9267 9.42084 46.0103 10.5197 45.3942 10.873 44.8833 11.3839 44.53 12L5.45 80C4.34543 81.9132 5.00093 84.3595 6.9141 85.4641 7.52097 85.8145 8.20924 85.9993 8.91 86L87.09 86C89.2991 85.9977 91.0882 84.205 91.0859 81.9959 91.0852 81.2951 90.9004 80.6069 90.55 80ZM46.77 58.4 46.77 59.16C46.759 63.0822 43.5822 66.259 39.66 66.27L32.05 66.27 32.05 73 29 73 29 56.1 32 56.1 32 63.22 39.61 63.22C41.8477 63.2091 43.6591 61.3977 43.67 59.16L43.67 57.16 34.48 53.3 39.2 42.05 66.36 53.32 55.4 62ZM64.48 61.85 60.78 60.33 65.29 56.77 69 58.3Z" class="MsftOfcThm_Text1_Fill_v2" fill="#FFFFFF"/></svg>